<svg viewBox="1 -20 511.99997 511" xmlns="http://www.w3.org/2000/svg"><path d="m340.957031 57.839844c0 26.132812 45.636719 321.726562 45.636719 321.726562s45.636719-295.59375 45.636719-321.726562c0-26.128906-20.433594-47.3125-45.636719-47.3125s-45.636719 21.183594-45.636719 47.3125zm0 0" fill="#97b6bf"/><path d="m212.371094 187.023438h-172.257813c-16.617187 0-30.085937-13.46875-30.085937-30.085938 0-16.613281 13.46875-30.082031 30.085937-30.082031h172.257813c16.617187 0 30.085937 13.46875 30.085937 30.082031 0 16.617188-13.46875 30.085938-30.085937 30.085938zm0 0" fill="#bf8b3f"/><path d="m212.121094 462.296875h-171.757813c-16.753906 0-30.335937-13.582031-30.335937-30.335937 0-16.753907 13.582031-30.335938 30.335937-30.335938h171.757813c16.753906 0 30.335937 13.582031 30.335937 30.335938 0 16.753906-13.582031 30.335937-30.335937 30.335937zm0 0" fill="#bf8b3f"/><path d="m41.894531 187.023438h168.472657v214.601562h-168.472657zm0 0" fill="#c9f3ff"/><path d="m143.738281 345.277344c.253907.613281.5625 1.195312.925781 1.734375.359376.554687.78125 1.066406 1.242188 1.527343.460938.460938.980469.882813 1.523438 1.242188.550781.359375 1.132812.671875 1.734374.921875.601563.25 1.234376.441406 1.875.570313.652344.132812 1.304688.203124 1.957032.203124.660156 0 1.3125-.070312 1.964844-.203124.640624-.128907 1.265624-.320313 1.875-.570313.601562-.25 1.183593-.5625 1.726562-.921875.550781-.359375 1.0625-.78125 1.523438-1.242188.460937-.460937.882812-.972656 1.253906-1.527343.359375-.539063.671875-1.121094.921875-1.734375.25-.601563.441406-1.230469.570312-1.875.132813-.640625.191407-1.304688.191407-1.953125 0-.652344-.058594-1.316407-.191407-1.96875-.128906-.628907-.320312-1.261719-.570312-1.871094-.25-.605469-.5625-1.1875-.921875-1.726563-.363282-.550781-.78125-1.0625-1.246094-1.523437-.46875-.472656-.980469-.882813-1.523438-1.253906-.550781-.363281-1.132812-.671875-1.734374-.925781-.601563-.25-1.234376-.4375-1.875-.570313-1.292969-.261719-2.628907-.261719-3.921876 0-.640624.132813-1.273437.320313-1.875.570313-.601562.253906-1.191406.5625-1.734374.925781-.550782.371093-1.0625.78125-1.523438 1.253906-.460938.460937-.882812.972656-1.242188 1.523437-.363281.539063-.671874 1.121094-.925781 1.726563-.25.609375-.441406 1.242187-.570312 1.871094-.128907.652343-.199219 1.316406-.199219 1.96875 0 .648437.070312 1.3125.199219 1.953125.128906.640625.320312 1.273437.570312 1.875zm0 0"/><path d="m501.972656 75.550781h-61.226562c.96875-8.601562 1.511718-14.753906 1.511718-17.710937 0-31.617188-24.972656-57.339844-55.664062-57.339844-30.695312 0-55.664062 25.722656-55.664062 57.339844 0 3.226562.648437 10.257812 1.785156 20.125-35.25 8.796875-61.441406 40.714844-61.441406 78.648437v86.964844c0 15.546875-12.648438 28.191406-28.191407 28.191406h-22.6875v-75.523437c18.289063-3.730469 32.089844-19.933594 32.089844-39.308594 0-22.117188-17.992187-40.109375-40.113281-40.109375h-172.257813c-22.117187 0-40.113281 17.992187-40.113281 40.109375 0 19.292969 13.691406 35.445312 31.867188 39.257812v196.3125c-18.191407 3.914063-31.867188 20.113282-31.867188 39.453126 0 22.257812 18.105469 40.363281 40.363281 40.363281h171.757813c22.257812 0 40.363281-18.105469 40.363281-40.363281 0-19.421876-13.789063-35.679688-32.089844-39.507813v-100.625h22.6875c26.601563 0 48.246094-21.644531 48.246094-48.25v-86.964844c0-27.6875 18.546875-51.113281 43.867187-58.539062 11.066407 85.789062 39.976563 273.246093 41.488282 283.019531.753906 4.890625 4.960937 8.5 9.910156 8.5s9.15625-3.609375 9.910156-8.5c1.523438-9.867188 30.984375-200.886719 41.808594-285.488281h63.660156c5.539063 0 10.027344-4.492188 10.027344-10.027344 0-5.539063-4.488281-10.027344-10.027344-10.027344zm-301.632812 137.515625-148.417969 26.648438v-42.664063h148.417969zm-148.417969 47.027344 148.417969-26.648438v38.324219h-148.417969zm-31.867187-103.15625c0-11.058594 9-20.054688 20.058593-20.054688h172.257813c11.058594 0 20.058594 8.996094 20.058594 20.054688 0 11.0625-9 20.058594-20.058594 20.058594h-172.257813c-11.058593 0-20.058593-8.996094-20.058593-20.058594zm212.375 275.023438c0 11.199218-9.109376 20.308593-20.308594 20.308593h-171.757813c-11.199219 0-20.308593-9.109375-20.308593-20.308593 0-11.195313 9.109374-20.304688 20.308593-20.304688h171.757813c11.199218 0 20.308594 9.109375 20.308594 20.304688zm-32.089844-100.007813h-7.230469c-5.539063 0-10.027344 4.492187-10.027344 10.027344 0 5.539062 4.488281 10.027343 10.027344 10.027343h7.230469v39.589844h-148.417969v-39.589844h60.960937c5.539063 0 10.027344-4.488281 10.027344-10.027343 0-5.535157-4.488281-10.027344-10.027344-10.027344h-60.960937v-40.125h148.417969zm186.253906-18.792969c-10.824219-71.464844-24.746094-165.34375-31.527344-217.554687h20.78125v9.640625c0 5.535156 4.488282 10.027344 10.027344 10.027344s10.027344-4.492188 10.027344-10.027344v-47.359375c0-5.535157-4.488282-10.027344-10.027344-10.027344s-10.027344 4.492187-10.027344 10.027344v17.664062h-23.269531c-1.019531-8.800781-1.59375-14.96875-1.59375-17.710937 0-20.558594 15.976563-37.285156 35.609375-37.285156s35.605469 16.726562 35.605469 37.285156c0 16.527344-20.734375 157.101562-35.605469 255.320312zm0 0"/></svg>